<svg id="Ebene_2" data-name="Ebene 2" xmlns="http://www.w3.org/2000/svg" xmlns:xlink="http://www.w3.org/1999/xlink" viewBox="0 0 128 128"><defs><style>.cls-1{fill:#6092c4;}.cls-2{fill:url(#Unbenannter_Verlauf_171);}.cls-3{fill:#fff;}.cls-4{fill:#8ff0a4;}.cls-5{fill:#e01b24;}.cls-6{opacity:0.34;}.cls-7{fill:none;stroke-width:4px;}.cls-7,.cls-8{stroke:#5e5e5e;stroke-miterlimit:10;}.cls-8{fill:#5e5e5e;}.cls-9{fill:#5f5c65;}.cls-10{fill:url(#Unbenannter_Verlauf_15);}</style><linearGradient id="Unbenannter_Verlauf_171" x1="64.15" y1="112.78" x2="64.15" y2="4.34" gradientUnits="userSpaceOnUse"><stop offset="0" stop-color="#99c1f1"/><stop offset="1" stop-color="#aecdf0"/></linearGradient><linearGradient id="Unbenannter_Verlauf_15" x1="73.52" y1="55.36" x2="73.52" y2="116.72" gradientUnits="userSpaceOnUse"><stop offset="0" stop-color="#9a9996"/><stop offset="0.95" stop-color="#77767b"/></linearGradient></defs><path class="cls-1" d="M68.05,7.47A21.38,21.38,0,1,0,89.43,28.85,21.38,21.38,0,0,0,68.05,7.47Zm0,33.09A11.71,11.71,0,1,1,79.76,28.85,11.71,11.71,0,0,1,68.05,40.56Z"/><path class="cls-1" d="M34.07,18.5A15.22,15.22,0,1,0,49.28,33.72,15.21,15.21,0,0,0,34.07,18.5Zm0,23.9a8.69,8.69,0,1,1,8.68-8.68A8.68,8.68,0,0,1,34.07,42.4Z"/><path class="cls-1" d="M117.55,55.78v54.88c0,2.19-4.11,3.08-5.94,1.28L80.36,84.73a1.87,1.87,0,0,1,0-3L111.61,54.5C113.44,52.7,117.55,53.59,117.55,55.78Z"/><rect class="cls-1" x="10.75" y="49.86" width="84.79" height="66.76" rx="8.54"/><path class="cls-2" d="M111.61,50.83l-16.06,14V54.56A8.54,8.54,0,0,0,87,46H74.74A21.38,21.38,0,1,0,46.81,23.33,15.21,15.21,0,1,0,29.16,46H19.29a8.54,8.54,0,0,0-8.54,8.54v49.68a8.54,8.54,0,0,0,8.54,8.54H87a8.54,8.54,0,0,0,8.54-8.54v-10l16.06,14c1.83,1.8,5.94.91,5.94-1.29V52.11C117.55,49.92,113.44,49,111.61,50.83ZM68.05,14A11.72,11.72,0,1,1,56.34,25.72,11.71,11.71,0,0,1,68.05,14ZM25.39,31.63a8.68,8.68,0,1,1,8.68,8.68A8.68,8.68,0,0,1,25.39,31.63Zm23.48,3.49A21.4,21.4,0,0,0,61.36,46H39A15.23,15.23,0,0,0,48.87,35.12Z"/><rect class="cls-3" x="18.41" y="79.54" width="27.96" height="3.41"/><rect class="cls-4" x="18.41" y="89.57" width="16.63" height="3.76"/><rect class="cls-3" x="38.59" y="89.57" width="11.12" height="3.76"/><rect class="cls-3" x="18.41" y="99.78" width="31.99" height="3.76"/><rect class="cls-5" x="57.23" y="84.74" width="17.4" height="6.16"/><rect class="cls-3" x="47.1" y="74.55" width="22.8" height="6.16"/><g class="cls-6"><circle class="cls-7" cx="67.62" cy="85.11" r="21.82"/><rect class="cls-8" x="89.37" y="94.64" width="6.17" height="30.56" rx="3" transform="translate(-50.65 97.57) rotate(-45)"/></g><path class="cls-9" d="M103.34,113.47,87.19,97.32a24.82,24.82,0,1,0-4.36,4.37L99,117.83a3,3,0,0,0,4.2,0l.16-.15A3,3,0,0,0,103.34,113.47ZM48.78,82.14A18.84,18.84,0,1,1,67.62,101,18.87,18.87,0,0,1,48.78,82.14Z"/><path class="cls-10" d="M103.34,111.49,87.19,95.34a24.78,24.78,0,1,0-4.36,4.37L99,115.85a3,3,0,0,0,4.2,0l.16-.16A3,3,0,0,0,103.34,111.49ZM48.78,80.15A18.84,18.84,0,1,1,67.62,99,18.86,18.86,0,0,1,48.78,80.15Z"/></svg>