<?xml version="1.0" encoding="UTF-8" standalone="no"?>
<!DOCTYPE svg PUBLIC "-//W3C//DTD SVG 1.1//EN" "http://www.w3.org/Graphics/SVG/1.1/DTD/svg11.dtd">
<svg width="100%" height="100%" viewBox="0 0 500 500" version="1.1" xmlns="http://www.w3.org/2000/svg" xmlns:xlink="http://www.w3.org/1999/xlink" xml:space="preserve" xmlns:serif="http://www.serif.com/" style="fill-rule:evenodd;clip-rule:evenodd;stroke-linejoin:round;stroke-miterlimit:2;">
    <g>
        <path d="M380.546,394.931C379.769,403.878 378.772,412.826 377.555,421.777C374.388,445.105 357.084,463.199 335.417,465.839C268.595,473.899 201.694,473.865 134.721,465.776C113.054,463.145 95.75,445.051 92.59,421.723C85.874,372.41 85.93,323.026 92.647,273.566C95.798,250.341 112.965,232.289 134.522,229.532C201.232,221.087 268.281,221.062 335.668,229.602C357.201,232.348 374.357,250.365 377.525,273.56C378.793,282.795 379.823,292.033 380.616,301.278C380.939,300.954 381.261,300.631 381.586,300.306C396.422,285.47 407.077,275.771 414.614,269.438C418.193,266.451 423.098,265.609 427.468,267.232C431.838,268.856 435.004,272.696 435.764,277.296C437.874,291.08 439.94,313.297 439.94,347.53C439.94,382.583 437.876,404.817 435.758,418.403C434.994,422.928 431.899,426.714 427.616,428.361C423.333,430.009 418.498,429.273 414.899,426.427C407.152,420.247 396.297,410.684 381.586,395.972C381.237,395.624 380.891,395.277 380.546,394.931Z" style="fill:url(#_Radial1);"/>
        <g transform="matrix(1.74696,0,0,1.74696,-421.139,-345.537)">
            <circle cx="333" cy="284" r="27" style="fill:url(#_Radial2);"/>
        </g>
        <g transform="matrix(2.57301,0,0,2.57301,-560.867,-603.265)">
            <circle cx="333" cy="284" r="27" style="fill:url(#_Radial3);"/>
        </g>
    </g>
    <g transform="matrix(1,0,0,0.869565,0,39.7826)">
        <path d="M336,385.465C336,379.133 331.536,374 326.03,374C291.077,374 174.316,374 139.124,374C136.439,374 133.864,375.227 131.965,377.41C130.067,379.593 129,382.555 129,385.643L129,385.645C129,388.656 130.04,391.545 131.892,393.674C133.744,395.804 136.255,397 138.874,397C173.74,397 290.865,397 325.972,397C331.51,397 336,391.837 336,385.468C336,385.467 336,385.466 336,385.465Z" style="fill:white;"/>
    </g>
    <g transform="matrix(0.362319,0,0,0.869565,82.2609,80.6454)">
        <path d="M336,385.465C336,379.133 323.68,374 308.483,374C268.998,374 196.661,374 156.942,374C149.531,374 142.424,375.227 137.184,377.41C131.944,379.593 129,382.555 129,385.643L129,385.645C129,388.656 131.871,391.545 136.982,393.674C142.093,395.804 149.024,397 156.252,397L308.323,397C323.608,397 336,391.837 336,385.468C336,385.467 336,385.466 336,385.465Z" style="fill:white;"/>
    </g>
    <g transform="matrix(0.565217,0,0,0.869565,145.477,80.6454)">
        <path d="M336,385.465C336,379.133 328.103,374 318.361,374C279.361,374 186.163,374 146.912,374C137.019,374 129,379.213 129,385.643C129,385.643 129,385.644 129,385.645C129,388.656 130.841,391.545 134.117,393.674C137.393,395.804 141.836,397 146.469,397C185.424,397 279.05,397 318.258,397C328.057,397 336,391.837 336,385.468C336,385.467 336,385.466 336,385.465Z" style="fill:white;"/>
    </g>
    <defs>
        <radialGradient id="_Radial1" cx="0" cy="0" r="1" gradientUnits="userSpaceOnUse" gradientTransform="matrix(428,-91,64.2202,302.047,104,474)"><stop offset="0" style="stop-color:rgb(0,47,138);stop-opacity:1"/><stop offset="1" style="stop-color:rgb(67,125,202);stop-opacity:1"/></radialGradient>
        <radialGradient id="_Radial2" cx="0" cy="0" r="1" gradientUnits="userSpaceOnUse" gradientTransform="matrix(31.186,-48.8056,48.6124,31.186,328.461,308.801)"><stop offset="0" style="stop-color:rgb(96,234,146);stop-opacity:1"/><stop offset="1" style="stop-color:rgb(109,255,197);stop-opacity:1"/></radialGradient>
        <radialGradient id="_Radial3" cx="0" cy="0" r="1" gradientUnits="userSpaceOnUse" gradientTransform="matrix(31.186,-48.8056,48.6124,31.186,328.461,308.801)"><stop offset="0" style="stop-color:rgb(255,57,104);stop-opacity:1"/><stop offset="0.53" style="stop-color:rgb(255,55,116);stop-opacity:1"/><stop offset="1" style="stop-color:rgb(255,46,158);stop-opacity:1"/></radialGradient>
    </defs>
</svg>
